# xmcd
#
# Track frame offsets:
#  150
#  17956
#  31488
#  51658
#  76906
#  91856
#  104856
#  123430
#  140610
#  155170
#  171325
#  186969
#  216869
#
# Disc length: 3169 seconds
#
# Revision: 0
# Processed by: cddbd v1.5.1PL2 Copyright (c) Steve Scherf et al.
# Submitted via: Collectorz.com_Music_Collector 6.9
#
DISCID=c30c5f0d
DTITLE=El shit - Eat my dust
DYEAR=2003
DGENRE=Thrash Metal
TTITLE0=Frame
TTITLE1=1000 - mile
TTITLE2=Reminded pain
TTITLE3=face it
TTITLE4=Live your own life
TTITLE5=Suicide
TTITLE6=Hate world
TTITLE7=Current - leakage
TTITLE8=Soul
TTITLE9=In two
TTITLE10=Walk on
TTITLE11=Inevitable war
TTITLE12=title
EXTD=
EXTT0=
EXTT1=
EXTT2=
EXTT3=
EXTT4=
EXTT5=
EXTT6=
EXTT7=
EXTT8=
EXTT9=
EXTT10=
EXTT11=
EXTT12=
PLAYORDER=
